# xmcd
#
# Track frame offsets:
#        150
#        16650
#        32748
#        48303
#        65006
#
# Disc length: 1094 seconds
#
# Revision: 1
# Processed by: cddbd v1.5.1PL2 Copyright (c) Steve Scherf et al.
# Submitted via: ExactAudioCopy v0.95b3
#
DISCID=37044405
DTITLE=Britney Spears - Someday (I Will Understand)
DYEAR=2005
DGENRE=Pop
TTITLE0=Someday (I Will Understand)
TTITLE1=Chaotic
TTITLE2=Mona Lisa
TTITLE3=Over To You Now
TTITLE4=Someday (I Will Understand) Hi-Bias Remix
EXTD=YEAR: 2005
EXTT0=
EXTT1=
EXTT2=
EXTT3=
EXTT4=
PLAYORDER=
